<?xml version="1.0" standalone="no"?>
<!DOCTYPE svg PUBLIC "-//W3C//DTD SVG 20010904//EN"
 "http://www.w3.org/TR/2001/REC-SVG-20010904/DTD/svg10.dtd">
<svg version="1.0" xmlns="http://www.w3.org/2000/svg"
 width="800.000000pt" height="800.000000pt" viewBox="0 0 800.000000 800.000000"
 preserveAspectRatio="xMidYMid meet">
<metadata>
Created by potrace 1.11, written by Peter Selinger 2001-2013
</metadata>
<g transform="translate(0.000000,800.000000) scale(0.100000,-0.100000)"
fill="#000000" stroke="none">
<path d="M0 4000 l0 -4000 4000 0 4000 0 0 4000 0 4000 -4000 0 -4000 0 0
-4000z m4175 2540 c785 -58 1466 -448 1922 -1100 84 -121 215 -360 209 -383
-2 -9 0 -15 4 -12 4 3 23 -30 40 -72 49 -117 61 -156 55 -172 -3 -9 -3 -12 1
-8 11 11 45 -105 37 -128 -4 -11 -6 -27 -5 -35 2 -13 1 -13 -7 -1 -6 9 -6 24
0 38 12 32 11 36 -3 27 -6 -4 -8 -3 -5 3 3 5 2 23 -3 39 -8 28 -8 28 -10 4 -1
-14 -4 -19 -7 -12 -6 15 -163 17 -163 2 0 -5 -18 -10 -40 -10 -22 0 -40 5 -40
10 0 6 -18 10 -40 10 -22 0 -40 -4 -40 -10 0 -6 -33 -10 -80 -10 -69 0 -80 -2
-81 -17 0 -15 -1 -16 -7 -3 -9 20 -143 21 -150 2 -2 -8 -30 -12 -83 -12 -46 0
-79 -4 -79 -10 0 -6 -33 -10 -80 -10 -47 0 -80 4 -80 10 0 6 -127 10 -360 10
-233 0 -360 -4 -360 -10 0 -7 -153 -10 -440 -10 -384 0 -440 -2 -440 -15 0
-13 -47 -15 -360 -15 -313 0 -360 -2 -360 -15 0 -13 -38 -15 -280 -15 -180 0
-280 -4 -280 -10 0 -6 -47 -10 -120 -10 -89 0 -120 -3 -121 -12 0 -9 -2 -9 -6
1 -5 11 -7 11 -14 0 -7 -12 -9 -11 -9 1 0 13 -1 13 -10 0 -7 -11 -10 -12 -10
-2 0 10 -4 10 -16 -2 -13 -14 -57 -16 -330 -16 -208 0 -313 3 -309 10 3 6 1
10 -4 10 -6 0 -11 -9 -11 -20 0 -11 -6 -20 -14 -20 -10 0 -13 11 -11 38 1 20
0 25 -2 10 -7 -45 -21 -32 -17 15 l3 42 -8 -40 c-5 -22 -6 -45 -4 -52 3 -7 -2
-16 -11 -19 -9 -3 -17 -18 -17 -33 -1 -20 -3 -21 -6 -6 -5 28 58 271 102 391
56 151 175 386 261 514 480 717 1233 1129 2099 1149 33 0 123 -4 200 -9z m141
-1887 c-10 -10 -306 -11 -312 -1 -3 5 68 8 157 8 89 0 159 -3 155 -7z m320 0
c-9 -10 -146 -11 -152 -1 -3 4 32 8 77 8 45 0 79 -3 75 -7z m1833 -63 c0 -10
-3 -8 -9 5 -12 27 -12 43 0 25 5 -8 9 -22 9 -30z m-2726 23 c-101 -2 -265 -2
-365 0 -101 1 -19 2 182 2 201 0 283 -1 183 -2z m-2246 -220 c-3 -10 -5 -4 -5
12 0 17 2 24 5 18 2 -7 2 -21 0 -30z m3251 -218 c24 -26 32 -44 32 -72 0 -46
-9 -83 -21 -83 -4 0 -3 13 2 30 14 38 -4 95 -36 116 -13 9 -41 17 -61 19 -107
8 -133 -166 -27 -179 42 -6 73 24 73 68 0 39 -19 59 -51 54 -32 -5 -47 -33
-31 -59 17 -27 9 -35 -12 -14 -33 33 -18 80 31 96 31 10 37 9 58 -11 35 -33
41 -74 16 -113 -11 -17 -21 -28 -21 -24 0 5 -7 1 -17 -8 -12 -12 -25 -15 -52
-10 -113 21 -130 168 -26 217 56 26 102 18 143 -27z m-70 -112 c-2 -9 -8 -18
-15 -20 -7 -3 -9 3 -6 16 6 25 26 28 21 4z m-1941 -53 c1 -34 1 -34 -5 -5 -10
42 -42 47 -42 6 0 -17 -4 -31 -10 -31 -11 0 -13 30 -4 55 4 10 16 15 33 13 22
-3 26 -8 28 -38z m1637 -6 c9 -3 16 -10 16 -15 0 -6 -7 -6 -17 -1 -10 5 -25 7
-33 5 -13 -4 -13 -3 0 6 18 13 15 12 34 5z m-1738 -123 c-7 -11 -56 -21 -56
-10 0 6 13 11 53 18 5 0 6 -3 3 -8z m49 -51 c-3 -83 -14 -88 -14 -6 1 36 4 66
9 66 4 0 7 -27 5 -60z m52 -22 c-2 -18 -4 -6 -4 27 0 33 2 48 4 33 2 -15 2
-42 0 -60z m93 62 c-6 -11 -10 -58 -8 -108 2 -69 6 -87 18 -87 12 0 16 17 18
80 2 44 6 83 10 87 4 4 5 -34 2 -85 -5 -90 -6 -92 -30 -92 -24 0 -25 2 -28 80
-3 89 4 145 19 145 6 0 6 -7 -1 -20z m110 15 c0 -8 -52 -26 -58 -20 -3 2 6 9
19 14 28 11 39 13 39 6z m90 -16 c-7 -11 -14 -19 -16 -16 -7 7 7 37 17 37 6 0
5 -9 -1 -21z m200 7 c0 -8 -16 -31 -35 -52 -43 -45 -47 -35 -5 13 17 19 28 38
25 44 -4 5 -1 9 4 9 6 0 11 -6 11 -14z m108 0 c-7 -8 -15 -12 -17 -11 -5 6 10
25 20 25 5 0 4 -6 -3 -14z m937 4 c-3 -5 -14 -10 -23 -10 -15 0 -15 2 -2 10
20 13 33 13 25 0z m67 -92 c2 -31 0 -54 -4 -51 -5 2 -7 39 -7 81 2 80 6 68 11
-30z m193 92 c-3 -5 -35 -10 -71 -10 -36 0 -64 -4 -64 -10 0 -5 -4 -10 -10
-10 -5 0 -7 7 -4 15 4 10 26 15 77 18 40 1 73 4 75 5 2 1 0 -2 -3 -8z m108
-209 c11 -14 10 -14 -5 -2 -15 11 -18 29 -16 120 l2 106 3 -104 c2 -62 9 -111
16 -120z m39 117 c-2 -57 -6 -106 -10 -110 -4 -4 -6 42 -4 102 2 61 6 110 10
110 4 0 6 -46 4 -102z m98 81 c-7 -11 -14 -19 -16 -16 -7 7 7 37 17 37 6 0 5
-9 -1 -21z m325 -1 c3 -13 5 -63 3 -113 -3 -89 -3 -90 -28 -90 -24 0 -25 2
-28 80 -2 86 -16 125 -42 125 -31 0 -40 -23 -40 -101 0 -83 -6 -109 -23 -109
-7 0 -7 4 1 12 7 7 12 44 12 96 0 88 10 112 48 112 35 0 52 -42 52 -130 0 -73
2 -80 20 -80 19 0 20 7 20 91 0 50 -5 99 -10 110 -7 13 -7 19 -1 19 6 0 13
-10 16 -22z m113 2 c-7 -10 -14 -18 -15 -16 -6 6 9 36 18 36 5 0 4 -9 -3 -20z
m199 5 c0 -8 -4 -15 -9 -15 -4 0 -8 7 -8 15 0 8 4 15 8 15 5 0 9 -7 9 -15z
m-2267 -8 c0 -8 -9 -22 -20 -32 -30 -27 -24 -79 7 -54 9 8 13 8 13 1 0 -21
-21 -24 -41 -6 -24 22 -24 26 5 57 29 31 16 46 -19 23 -18 -12 -25 -26 -25
-47 0 -18 -4 -28 -10 -24 -18 11 -11 36 19 66 31 30 71 39 71 16z m310 3 c11
-7 5 -8 -20 -4 -43 8 -51 14 -19 14 13 0 31 -5 39 -10z m310 0 c11 -7 15 -32
16 -102 l2 -93 -7 85 c-3 47 -10 91 -14 98 -10 15 -39 16 -55 0 -8 -8 -12 -9
-12 -1 0 21 45 29 70 13z m120 6 c0 -3 -4 -8 -10 -11 -5 -3 -10 -1 -10 4 0 6
5 11 10 11 6 0 10 -2 10 -4z m340 -8 c0 -6 -3 -8 -7 -5 -3 4 -12 2 -20 -4 -8
-8 -13 -8 -13 -1 0 10 15 19 33 21 4 1 7 -4 7 -11z m666 -4 c10 -8 13 -12 6
-9 -8 4 -26 11 -40 15 -22 7 -23 8 -6 9 11 1 29 -6 40 -15z m444 7 c0 -5 -10
-7 -22 -3 -16 4 -29 -3 -50 -28 -32 -39 -39 -26 -7 14 14 17 30 26 50 26 16 0
29 -4 29 -9z m-1700 -98 l-5 -98 -3 84 c-2 74 1 111 10 111 2 0 1 -44 -2 -97z
m220 93 c0 -3 -4 -8 -10 -11 -5 -3 -10 -1 -10 4 0 6 5 11 10 11 6 0 10 -2 10
-4z m64 -13 c3 -10 8 -55 12 -101 6 -69 9 -82 23 -80 13 3 16 19 16 100 0 53
3 94 8 91 4 -2 7 -47 7 -98 0 -82 -2 -96 -19 -104 -34 -19 -51 15 -51 105 0
49 -5 85 -12 92 -9 9 -9 12 -1 12 7 0 14 -8 17 -17z m201 -109 c-8 -13 -20
-24 -25 -24 -6 0 -1 9 10 20 15 15 20 35 22 78 l2 57 3 -53 c3 -37 -1 -61 -12
-78z m-1563 94 c-19 -19 -14 -66 9 -89 16 -16 29 -20 53 -15 22 4 27 3 16 -4
-58 -38 -125 45 -89 112 6 11 13 17 17 14 3 -4 0 -12 -6 -18z m2260 -65 c-2
-49 -7 -91 -10 -95 -4 -4 -6 25 -4 65 2 66 9 117 15 117 1 0 0 -39 -1 -87z
m-2323 20 c-1 -54 -2 -55 -9 -23 -8 31 -4 80 6 80 2 0 4 -26 3 -57z m817 12
c-1 -55 -16 -61 -16 -7 0 33 6 52 15 52 2 0 2 -20 1 -45z m2014 41 c0 -2 -7
-7 -16 -10 -8 -3 -12 -2 -9 4 6 10 25 14 25 6z m39 -36 c-18 -22 -34 -38 -37
-36 -4 4 57 76 65 76 2 0 -11 -18 -28 -40z m-2002 -32 c-2 -13 -4 -3 -4 22 0
25 2 35 4 23 2 -13 2 -33 0 -45z m193 -16 c0 -74 -9 -102 -34 -102 -5 0 -2 6
9 13 15 12 17 24 13 90 -3 43 -1 77 4 77 4 0 8 -35 8 -78z m140 -2 c0 -47 -4
-80 -10 -80 -6 0 -10 33 -10 80 0 47 4 80 10 80 6 0 10 -33 10 -80z m150 1 c0
-44 -4 -83 -10 -86 -6 -4 -10 25 -10 79 0 51 4 86 10 86 6 0 10 -33 10 -79z
m340 25 c0 -43 -5 -60 -22 -78 -13 -13 -17 -16 -9 -6 8 10 17 46 19 78 5 75
12 78 12 6z m210 11 c0 -24 5 -48 12 -55 7 -7 8 -12 4 -12 -5 0 -15 8 -22 18
-16 20 -19 92 -4 92 6 0 10 -19 10 -43z m372 -42 c2 -70 1 -82 -9 -68 -15 19
-18 153 -4 153 5 0 11 -38 13 -85z m150 -22 c2 -40 0 -67 -4 -60 -4 7 -7 48
-6 92 1 90 5 76 10 -32z m275 55 c-2 -13 -4 -5 -4 17 -1 22 1 32 4 23 2 -10 2
-28 0 -40z m-2160 -72 c10 -14 29 -30 43 -35 14 -5 18 -10 10 -10 -42 -2 -91
70 -89 131 1 28 2 27 9 -14 5 -26 16 -58 27 -72z m465 22 l-9 -63 -2 75 c-1
54 2 71 10 63 8 -8 8 -30 1 -75z m1806 40 c8 -10 11 -18 6 -18 -17 0 -34 23
-33 45 0 14 2 16 6 5 3 -8 12 -23 21 -32z m-790 25 c-22 -3 -28 -10 -28 -28 0
-13 -5 -27 -10 -30 -7 -4 -8 3 -4 22 10 41 12 43 42 42 l27 -2 -27 -4z m762
-67 c0 -5 -9 1 -20 14 -11 13 -20 28 -20 34 0 13 39 -35 40 -48z m-730 29 c0
-8 -2 -15 -4 -15 -2 0 -6 7 -10 15 -3 8 -1 15 4 15 6 0 10 -7 10 -15z m-1823
-17 c-3 -8 -6 -5 -6 6 -1 11 2 17 5 13 3 -3 4 -12 1 -19z m419 -20 l39 -1 -34
-4 c-35 -5 -81 13 -81 30 0 6 8 3 18 -6 10 -10 36 -18 58 -19z m2074 -13 c0
-5 -5 -3 -10 5 -5 8 -10 20 -10 25 0 6 5 3 10 -5 5 -8 10 -19 10 -25z m-1155
1 c-12 -9 -16 -19 -11 -32 5 -14 4 -16 -4 -8 -16 16 -3 54 18 54 13 0 13 -2
-3 -14z m1283 7 c-10 -2 -26 -2 -35 0 -10 3 -2 5 17 5 19 0 27 -2 18 -5z
m-2095 -18 c4 -8 2 -17 -3 -20 -6 -4 -10 3 -10 14 0 25 6 27 13 6z m205 -6
c-4 -31 -31 -45 -60 -32 -21 10 -20 11 12 9 30 -1 35 2 34 22 0 12 3 22 8 22
5 0 8 -10 6 -21z m-763 -8 c-3 -6 -11 -11 -16 -11 -5 0 -4 6 3 14 14 16 24 13
13 -3z m2686 -14 c-10 -9 -11 -8 -5 6 3 10 9 15 12 12 3 -3 0 -11 -7 -18z
m-2811 3 c8 -5 11 -10 5 -10 -5 0 -17 5 -25 10 -8 5 -10 10 -5 10 6 0 17 -5
25 -10z m2750 -11 l45 -6 -41 -2 c-23 0 -48 5 -60 15 -10 8 -12 12 -4 8 8 -5
35 -11 60 -15z m-2670 1 c-8 -5 -26 -9 -40 -9 -23 1 -23 2 5 9 43 11 52 11 35
0z m1475 0 c-3 -5 -18 -10 -33 -9 l-27 1 25 8 c35 11 42 11 35 0z m-918 -7
c-20 -2 -52 -2 -70 0 -17 2 0 4 38 4 39 0 53 -2 32 -4z m470 1 c-3 -3 -12 -4
-19 -1 -8 3 -5 6 6 6 11 1 17 -2 13 -5z m776 -1 c-7 -2 -19 -2 -25 0 -7 3 -2
5 12 5 14 0 19 -2 13 -5z"/>
<path d="M6361 4864 c0 -11 3 -14 6 -6 3 7 2 16 -1 19 -3 4 -6 -2 -5 -13z"/>
</g>
</svg>
